#!OML:ASF F:\VICON\USERDATA\INSTALL\rory3\rory3.ASF
:FULLY-SPECIFIED
:DEGREES
489
root 1.14142 21.6155 14.3569 -160.347 -30.7371 -194.361
lowerback -4.41629 -9.64549 -6.55677
upperback -5.72009 -13.079 0.130769
thorax -2.08867 -6.49687 3.206
lowerneck -17.5742 -0.70207 -0.989893
upperneck 31.2116 -3.23747 1.61361
head 13.5177 -2.00733 0.102547
rclavicle 6.26669e-014 -9.54166e-015
rhumerus -47.4888 -59.9634 50.8813
rradius 15.1536
rwrist 82.2614
rhand -0.579992 -0.734407
rfingers 7.12502
rthumb 25.0347 -29.1138
lclavicle 6.26669e-014 -9.54166e-015
lhumerus 51.6879 -19.199 -8.67665
lradius 22.2389
lwrist -35.6675
lhand 5.64652 34.0445
lfingers 7.12502
lthumb 30.9864 61.4485
rfemur -159.299 -35.5675 443.431
rtibia 38.5488
rfoot -122.507 166.984
rtoes 63.5987
lfemur 21.9421 -16.4929 0.934584
ltibia 16.9813
lfoot -7.98464 58.4874
ltoes 39.7807
490
root 1.14598 21.5723 14.2335 -159.152 -30.3488 -195.068
lowerback -5.21365 -9.50672 -6.94264
upperback -6.13479 -12.9127 -0.0606901
thorax -2.07748 -6.42877 3.12532
lowerneck -17.3716 -0.808413 -1.24324
upperneck 31.2382 -3.35507 1.66736
head 13.4926 -2.09187 0.1484
rclavicle -3.42655e-014 7.95139e-015
rhumerus -50.8456 -60.2845 54.023
rradius 15.1648
rwrist 85.2267
rhand -0.696935 0.246617
rfingers 7.12502
rthumb 24.9227 -28.1484
lclavicle -3.42655e-014 7.95139e-015
lhumerus 52.0983 -21.5913 -11.3641
lradius 22.2993
lwrist -34.0623
lhand 5.58566 33.7026
lfingers 7.12502
lthumb 30.9284 61.1176
rfemur -159.02 -33.4275 447.839
rtibia 37.3066
rfoot -119.123 171.147
rtoes 63.6374
lfemur 20.2225 -16.2047 -0.0683168
ltibia 16.5129
lfoot -23.7324 55.5602
ltoes 43.6261
491
root 1.14317 21.5313 14.115 -158.168 -29.9954 -195.622
lowerback -6.46223 -9.45863 -7.41873
upperback -5.96699 -12.7216 -0.120105
thorax -1.1612 -6.36303 3.07151
lowerneck -17.6847 -0.964346 -1.46901
upperneck 30.9372 -3.39721 1.66271
head 13.4363 -2.10129 0.184533
rclavicle 1.25234e-014 3.97569e-015
rhumerus -55.25 -60.8705 57.9351
rradius 15.1613
rwrist 87.5898
rhand -0.902112 0.839917
rfingers 7.12502
rthumb 24.726 -27.5822
lclavicle 1.25234e-014 3.97569e-015
lhumerus 52.594 -23.6475 -14.4907
lradius 22.418
lwrist -31.5043
lhand 5.33507 33.9239
lfingers 7.12502
lthumb 30.6895 61.3841
rfemur -159.903 -29.9363 454.381
rtibia 36.4564
rfoot -113.608 174.565
rtoes 63.7394
lfemur 18.5222 -16.1378 -1.19858
ltibia 16.1561
lfoot -36.5011 50.2147
ltoes 46.385
492
root 1.14582 21.4731 13.9863 -157.577 -29.741 -195.855
lowerback -6.80011 -9.35874 -7.46897
upperback -6.3527 -12.6355 -0.217801
thorax -1.41018 -6.32857 2.99538
lowerneck -17.2616 -1.00344 -1.68177
upperneck 31.074 -3.47252 1.67928
head 13.4088 -2.18603 0.214278
rclavicle 2.55935e-014 2.38542e-014
rhumerus -56.5358 -60.2767 58.5634
rradius 15.1066
rwrist 88.7098
rhand -1.35666 1.07028
rfingers 7.12502
rthumb 24.2903 -27.4108
lclavicle 2.55935e-014 2.38542e-014
lhumerus 52.8468 -26.1906 -16.5649
lradius 22.5359
lwrist -29.9192
lhand 4.57873 33.6874
lfingers 7.12502
lthumb 29.9681 61.2804
rfemur -58.3313 25.3101 282.299
rtibia 35.6452
rfoot -84.2726 25.1035
rtoes 63.8027
lfemur 16.8446 -16.147 -2.062
ltibia 16.1126
lfoot -42.586 45.6678
ltoes 47.5359
493
root 1.1578 21.3999 13.854 -157.291 -29.6506 -195.779
lowerback -7.14403 -9.29281 -7.5119
upperback -6.54032 -12.553 -0.192915
thorax -1.41877 -6.29467 3.01145
lowerneck -16.6786 -1.04776 -1.87208
upperneck 31.0604 -3.57345 1.75672
head 13.2847 -2.26965 0.264445
rclavicle 7.729e-014 1.59028e-014
rhumerus -58.6053 -60.0127 59.9343
rradius 15.0943
rwrist 89.8916
rhand -1.96203 1.43865
rfingers 7.12502
rthumb 23.7098 -27.1189
lclavicle 7.729e-014 1.59028e-014
lhumerus 53.0231 -28.419 -18.1562
lradius 22.5697
lwrist -28.6155
lhand 3.37212 32.8524
lfingers 7.12502
lthumb 28.8161 60.6476
rfemur -56.652 19.5012 291.508
rtibia 35.1377
rfoot -77.3826 18.7613
rtoes 63.846
lfemur 15.1066 -16.1464 -2.54687
ltibia 16.2877
lfoot -46.0472 41.9497
ltoes 48.0759
494
root 1.17617 21.3142 13.723 -157.123 -29.5012 -195.679
lowerback -7.40286 -9.23351 -7.75199
upperback -6.5234 -12.4334 -0.0732873
thorax -1.20112 -6.23383 3.21565
lowerneck -16.6843 -1.07398 -1.899
upperneck 31.1172 -3.58736 1.68024
head 13.309 -2.29081 0.236019
rclavicle 1.37907e-014 3.18055e-015
rhumerus -59.8013 -59.3669 60.1703
rradius 14.9602
rwrist 89.541
rhand -2.32573 1.68077
rfingers 7.12502
rthumb 23.3609 -26.9216
lclavicle 1.37907e-014 3.18055e-015
lhumerus 53.2114 -30.4878 -19.6705
lradius 22.5541
lwrist -26.9041
lhand 2.74605 32.5309
lfingers 7.12502
lthumb 28.2179 60.4265
rfemur -55.3748 13.1405 301.09
rtibia 34.6114
rfoot -70.7675 9.11173
rtoes 63.7436
lfemur 13.3559 -16.4305 -3.20289
ltibia 16.7069
lfoot -49.2187 37.8415
ltoes 48.4427
495
root 1.18439 21.2163 13.5927 -157.207 -29.3484 -195.346
lowerback -7.46276 -9.14496 -7.59963
upperback -6.62342 -12.3297 0.0351461
thorax -1.29034 -6.18282 3.26045
lowerneck -16.5611 -1.02546 -1.80591
upperneck 31.3432 -3.53571 1.45577
head 13.3702 -2.30739 0.136052
rclavicle -3.72721e-017 -1.59028e-015
rhumerus -60.8753 -58.8905 60.2674
rradius 14.7737
rwrist 89.1191
rhand -2.62011 1.41766
rfingers 7.12502
rthumb 23.0785 -27.2203
lclavicle -3.72721e-017 -1.59028e-015
lhumerus 52.9454 -32.5953 -20.3918
lradius 22.5393
lwrist -26.0278
lhand 3.25677 32.8847
lfingers 7.12502
lthumb 28.7059 60.6987
rfemur -54.6161 8.83958 309.483
rtibia 34.1666
rfoot -65.7247 0.290576
rtoes 63.4002
lfemur 11.69 -16.9649 -3.87535
ltibia 17.4276
lfoot -51.6898 33.6562
ltoes 48.75
496
root 1.1905 21.099 13.4628 -157.421 -29.1595 -194.857
lowerback -7.62642 -9.02974 -7.32584
upperback -6.79113 -12.2023 0.139281
thorax -1.42151 -6.12592 3.23229
lowerneck -15.8611 -0.924802 -1.82905
upperneck 31.5821 -3.49962 1.37173
head 13.318 -2.35643 0.111447
rclavicle 5.56597e-015 -1.66979e-014
rhumerus -65.6614 -59.89 64.6139
rradius 14.7548
rwrist 91.4119
rhand -3.14892 1.38759
rfingers 7.12502
rthumb 22.571 -27.313
lclavicle 5.56597e-015 -1.66979e-014
lhumerus 52.672 -34.9938 -21.0307
lradius 22.5565
lwrist -25.2244
lhand 3.71424 33.474
lfingers 7.12502
lthumb 29.1428 61.2131
rfemur -54.2383 6.47121 316.621
rtibia 34.2026
rfoot -61.7797 -6.12742
rtoes 63.1651
lfemur 10.0543 -17.4738 -4.45697
ltibia 18.2695
lfoot -53.3111 29.9172
ltoes 49.0812
497
root 1.20329 20.9526 13.3271 -157.593 -28.8982 -194.557
lowerback -7.76866 -8.99191 -7.38218
upperback -6.60746 -12.0936 0.360756
thorax -1.10135 -6.06883 3.44734
lowerneck -16.7912 -0.852085 -2.12695
upperneck 32.3057 -3.33728 1.35129
head 13.8348 -2.32646 0.157584
rclavicle 9.44103e-014 1.74931e-014
rhumerus -76.8798 -62.2511 75.7884
rradius 14.9632
rwrist 96.4985
rhand -3.77642 2.14628
rfingers 7.12502
rthumb 21.9686 -26.6262
lclavicle 9.44103e-014 1.74931e-014
lhumerus 51.9417 -36.7726 -21.0352
lradius 22.4844
lwrist -24.058
lhand 3.81589 34.0155
lfingers 7.12502
lthumb 29.2399 61.7377
rfemur -53.8603 3.47028 323.877
rtibia 34.5588
rfoot -56.8207 -13.8962
rtoes 62.9632
lfemur 8.3277 -18.0087 -5.19431
ltibia 19.3676
lfoot -54.3577 26.8388
ltoes 49.2353
498
root 1.21166 20.8071 13.1848 -157.846 -28.7015 -194.286
lowerback -7.83542 -8.8942 -7.4133
upperback -6.54901 -11.9411 0.480781
thorax -0.988111 -5.99033 3.58321
lowerneck -17.3133 -0.751394 -2.29442
upperneck 33.0403 -3.21713 1.30108
head 14.2756 -2.32701 0.165009
rclavicle 2.24627e-014 3.49861e-014
rhumerus -82.554 -62.5105 80.8487
rradius 15.0227
rwrist 98.3615
rhand -3.88262 2.49297
rfingers 7.12502
rthumb 21.8667 -26.2915
lclavicle 2.24627e-014 3.49861e-014
lhumerus 51.9893 -39.3982 -22.2735
lradius 22.4095
lwrist -23.8813
lhand 3.11318 33.6359
lfingers 7.12502
lthumb 28.5687 61.473
rfemur -53.6065 -1.80439 333.105
rtibia 35.571
rfoot -48.0616 -24.0509
rtoes 62.1988
lfemur 6.6759 -18.4069 -5.9076
ltibia 20.4294
lfoot -55.042 24.6451
ltoes 49.1518
499
root 1.21936 20.6292 13.0449 -158.268 -28.4368 -193.755
lowerback -7.85578 -8.70732 -7.19996
upperback -6.53148 -11.6956 0.581073
thorax -1.00221 -5.86913 3.59959
lowerneck -17.533 -0.657661 -2.23787
upperneck 33.5939 -3.15031 1.16443
head 14.5706 -2.33845 0.0948426
rclavicle -1.20513e-015 7.15625e-015
rhumerus -86.2112 -62.169 83.7612
rradius 14.988
rwrist 99.2795
rhand -3.75323 2.70227
rfingers 7.12502
rthumb 21.9909 -26.0676
lclavicle -1.20513e-015 7.15625e-015
lhumerus 50.9185 -41.207 -21.5205
lradius 22.3714
lwrist -24.803
lhand 3.20777 33.5576
lfingers 7.12502
lthumb 28.6591 61.3795
rfemur -53.5906 -5.8526 341.32
rtibia 36.9174
rfoot -38.5459 -31.632
rtoes 61.0527
lfemur 4.97596 -18.329 -6.30854
ltibia 21.7236
lfoot -54.8697 23.5973
ltoes 49.0508
500
root 1.25029 20.4228 12.8805 -159.076 -27.9819 -193.326
lowerback -7.58941 -8.56519 -7.68907
upperback -6.33857 -11.4601 0.775279
thorax -0.842618 -5.73031 4.09606
lowerneck -17.6452 -0.545918 -2.25581
upperneck 33.9691 -2.99409 1.01173
head 14.7623 -2.31696 0.0514325
rclavicle -7.52897e-014 -7.95139e-016
rhumerus -91.7026 -61.9529 88.7202
rradius 14.9963
rwrist 101.097
rhand -3.63895 3.39189
rfingers 7.12502
rthumb 22.1006 -25.3651
lclavicle -7.52897e-014 -7.95139e-016
lhumerus 49.3373 -42.8859 -20.1505
lradius 22.2712
lwrist -25.5617
lhand 3.24673 33.6104
lfingers 7.12502
lthumb 28.6963 61.426
rfemur -53.2468 -8.25785 348.219
rtibia 38.7421
rfoot -28.6282 -36.1495
rtoes 59.3183
lfemur 3.75503 -17.7038 -6.79594
ltibia 23.2134
lfoot -53.4423 23.9545
ltoes 48.8273
501
root 1.26571 20.1925 12.7399 -159.482 -27.2862 -193.016
lowerback -7.54924 -8.32724 -7.96286
upperback -6.27598 -11.1198 0.906281
thorax -0.768192 -5.55082 4.41168
lowerneck -17.7784 -0.481624 -2.40516
upperneck 34.3252 -2.87847 0.918378
head 14.9566 -2.32046 0.0481584
rclavicle -3.39673e-014 -3.18055e-014
rhumerus -93.4604 -61.4746 89.5233
rradius 14.8376
rwrist 100.821
rhand -3.20364 3.6618
rfingers 7.12502
rthumb 22.5185 -25.0451
lclavicle -3.39673e-014 -3.18055e-014
lhumerus 46.9481 -44.1263 -17.6593
lradius 22.0268
lwrist -27.2365
lhand 3.00512 33.5202
lfingers 7.12502
lthumb 28.4655 61.3747
rfemur -53.0831 -10.6068 354.38
rtibia 40.5907
rfoot -11.5832 -41.8245
rtoes 55.6394
lfemur 1.98704 -16.7962 -7.4713
ltibia 25.0432
lfoot -51.4725 25.1043
ltoes 48.5221
